<?xml version="1.0" standalone="no"?>
<!DOCTYPE svg PUBLIC "-//W3C//DTD SVG 20010904//EN"
 "http://www.w3.org/TR/2001/REC-SVG-20010904/DTD/svg10.dtd">
<svg version="1.0" xmlns="http://www.w3.org/2000/svg"
 width="16.000000pt" height="16.000000pt" viewBox="0 0 16.000000 16.000000"
 preserveAspectRatio="xMidYMid meet">
<metadata>
Created by potrace 1.11, written by Peter Selinger 2001-2013
</metadata>
<g transform="translate(0.000000,16.000000) scale(0.003125,-0.003125)"
fill="#000000" stroke="none">
<path d="M2195 5105 c-241 -37 -486 -113 -740 -232 -270 -126 -502 -292 -721
-515 -340 -346 -562 -744 -674 -1210 -49 -207 -60 -310 -60 -584 0 -319 26
-504 102 -744 193 -607 556 -1079 1105 -1437 161 -105 465 -237 687 -297 232
-64 342 -78 626 -82 299 -4 398 7 640 67 374 92 716 260 1005 494 108 86 322
302 398 400 297 384 489 841 542 1295 17 146 20 439 4 578 -51 470 -238 923
-547 1322 -36 47 -125 144 -196 216 -359 360 -813 601 -1336 710 -116 24 -147
26 -435 30 -227 2 -334 -1 -400 -11z"/>
</g>
</svg>
